<mxfile host="app.diagrams.net" modified="2024-04-24T19:57:46.311Z" agent="Mozilla/5.0 (Macintosh; Intel Mac OS X 10_15_7) AppleWebKit/537.36 (KHTML, like Gecko) Chrome/124.0.0.0 Safari/537.36" etag="PCZ8LeF3AhTKHuWdvwiN" version="24.2.5" type="device">
  <diagram id="C5RBs43oDa-KdzZeNtuy" name="Page-1">
    <mxGraphModel dx="962" dy="783" grid="1" gridSize="10" guides="1" tooltips="1" connect="1" arrows="1" fold="1" page="1" pageScale="1" pageWidth="827" pageHeight="1169" math="0" shadow="0">
      <root>
        <mxCell id="WIyWlLk6GJQsqaUBKTNV-0" />
        <mxCell id="WIyWlLk6GJQsqaUBKTNV-1" parent="WIyWlLk6GJQsqaUBKTNV-0" />
        <mxCell id="3QUNWhYziTrBXsI8fLzz-0" value="ShoppingCart" style="swimlane;fontStyle=1;align=center;verticalAlign=top;childLayout=stackLayout;horizontal=1;startSize=26;horizontalStack=0;resizeParent=1;resizeParentMax=0;resizeLast=0;collapsible=1;marginBottom=0;whiteSpace=wrap;html=1;" vertex="1" parent="WIyWlLk6GJQsqaUBKTNV-1">
          <mxGeometry x="130" y="80" width="200" height="210" as="geometry">
            <mxRectangle x="440" y="640" width="110" height="30" as="alternateBounds" />
          </mxGeometry>
        </mxCell>
        <mxCell id="3QUNWhYziTrBXsI8fLzz-1" value="+cart: HashSet&amp;lt;String, Integer&amp;gt;" style="text;strokeColor=none;fillColor=none;align=left;verticalAlign=top;spacingLeft=4;spacingRight=4;overflow=hidden;rotatable=0;points=[[0,0.5],[1,0.5]];portConstraint=eastwest;whiteSpace=wrap;html=1;" vertex="1" parent="3QUNWhYziTrBXsI8fLzz-0">
          <mxGeometry y="26" width="200" height="34" as="geometry" />
        </mxCell>
        <mxCell id="3QUNWhYziTrBXsI8fLzz-2" value="" style="line;strokeWidth=1;fillColor=none;align=left;verticalAlign=middle;spacingTop=-1;spacingLeft=3;spacingRight=3;rotatable=0;labelPosition=right;points=[];portConstraint=eastwest;strokeColor=inherit;" vertex="1" parent="3QUNWhYziTrBXsI8fLzz-0">
          <mxGeometry y="60" width="200" height="8" as="geometry" />
        </mxCell>
        <mxCell id="3QUNWhYziTrBXsI8fLzz-3" value="+addFood(quantity: Int, food: String): void&lt;div style=&quot;line-height: 160%;&quot;&gt;&lt;div style=&quot;line-height: 160%;&quot;&gt;+removeFood(food: String): void&lt;/div&gt;&lt;div style=&quot;line-height: 160%;&quot;&gt;+editFoodAmount(quantity: Integer, food: String): void&lt;/div&gt;&lt;div style=&quot;line-height: 160%;&quot;&gt;+calculateWater(): int&lt;/div&gt;&lt;div style=&quot;line-height: 160%;&quot;&gt;+getCart(): String&lt;/div&gt;&lt;div style=&quot;line-height: 160%;&quot;&gt;&lt;br&gt;&lt;/div&gt;&lt;div&gt;&lt;br&gt;&lt;/div&gt;&lt;div&gt;&lt;br&gt;&lt;/div&gt;&lt;/div&gt;" style="text;strokeColor=none;fillColor=none;align=left;verticalAlign=top;spacingLeft=4;spacingRight=4;overflow=hidden;rotatable=0;points=[[0,0.5],[1,0.5]];portConstraint=eastwest;whiteSpace=wrap;html=1;" vertex="1" parent="3QUNWhYziTrBXsI8fLzz-0">
          <mxGeometry y="68" width="200" height="142" as="geometry" />
        </mxCell>
        <mxCell id="3QUNWhYziTrBXsI8fLzz-8" value="ScoreBoard" style="swimlane;fontStyle=1;align=center;verticalAlign=top;childLayout=stackLayout;horizontal=1;startSize=26;horizontalStack=0;resizeParent=1;resizeParentMax=0;resizeLast=0;collapsible=1;marginBottom=0;whiteSpace=wrap;html=1;" vertex="1" parent="WIyWlLk6GJQsqaUBKTNV-1">
          <mxGeometry x="480" y="80" width="161" height="130" as="geometry" />
        </mxCell>
        <mxCell id="3QUNWhYziTrBXsI8fLzz-9" value="+scoreboard: HashMap&amp;lt;Integer, String&amp;gt;" style="text;strokeColor=none;fillColor=none;align=left;verticalAlign=top;spacingLeft=4;spacingRight=4;overflow=hidden;rotatable=0;points=[[0,0.5],[1,0.5]];portConstraint=eastwest;whiteSpace=wrap;html=1;" vertex="1" parent="3QUNWhYziTrBXsI8fLzz-8">
          <mxGeometry y="26" width="161" height="44" as="geometry" />
        </mxCell>
        <mxCell id="3QUNWhYziTrBXsI8fLzz-10" value="" style="line;strokeWidth=1;fillColor=none;align=left;verticalAlign=middle;spacingTop=-1;spacingLeft=3;spacingRight=3;rotatable=0;labelPosition=right;points=[];portConstraint=eastwest;strokeColor=inherit;" vertex="1" parent="3QUNWhYziTrBXsI8fLzz-8">
          <mxGeometry y="70" width="161" height="8" as="geometry" />
        </mxCell>
        <mxCell id="3QUNWhYziTrBXsI8fLzz-11" value="+addUser(userId: int, water: int): void" style="text;strokeColor=none;fillColor=none;align=left;verticalAlign=top;spacingLeft=4;spacingRight=4;overflow=hidden;rotatable=0;points=[[0,0.5],[1,0.5]];portConstraint=eastwest;whiteSpace=wrap;html=1;" vertex="1" parent="3QUNWhYziTrBXsI8fLzz-8">
          <mxGeometry y="78" width="161" height="52" as="geometry" />
        </mxCell>
      </root>
    </mxGraphModel>
  </diagram>
</mxfile>
